<svg width="20" height="20" xmlns="http://www.w3.org/2000/svg" xmlns:xlink="http://www.w3.org/1999/xlink"><title>usa - flag</title><desc>Created using Figma</desc><g transform="translate(-5309 31)"><mask id="b"><use xlink:href="#a" transform="translate(5309 -31)" fill="#FFF"/></mask><g mask="url(#b)"><use xlink:href="#c" transform="translate(5306 -31)" fill="#FFF"/><use xlink:href="#d" transform="translate(5306 -31)" fill="#47A3DD"/><use xlink:href="#e" transform="translate(5319.26 -31)" fill="#F0937C"/><use xlink:href="#e" transform="translate(5319.26 -26.579)" fill="#F0937C"/><use xlink:href="#e" transform="translate(5319.26 -22.158)" fill="#F0937C"/><use xlink:href="#f" transform="translate(5306 -17.737)" fill="#F0937C"/><use xlink:href="#f" transform="translate(5306 -13.316)" fill="#F0937C"/></g></g><defs><path id="a" fill-rule="evenodd" d="M10 20c5.523 0 10-4.477 10-10S15.523 0 10 0 0 4.477 0 10s4.477 10 10 10z"/><path id="c" fill-rule="evenodd" d="M0 21h33.158V0H0v21z"/><path id="d" fill-rule="evenodd" d="M0 11.053h13.263V0H0v11.053z"/><path id="e" fill-rule="evenodd" d="M0 2.21h19.895V0H0v2.21z"/><path id="f" fill-rule="evenodd" d="M0 2.21h33.158V0H0v2.21z"/></defs></svg>