<svg width="50" height="50" xmlns="http://www.w3.org/2000/svg">

 <g>
  <title>background</title>
  <rect fill="none" id="canvas_background" height="52" width="52" y="-1" x="-1"/>
 </g>
 <g>
  <title>Layer 1</title>
  <path fill="#33bdf1" id="svg_1" d="m25,0.174c-13.689,0 -24.826,11.137 -24.826,24.826c0,13.689 11.137,24.826 24.826,24.826c13.689,0 24.826,-11.137 24.826,-24.826c0,-13.689 -11.137,-24.826 -24.826,-24.826zm6.959,38.038c-0.079,0.141 -0.189,0.236 -0.332,0.289l-0.098,0.021c-0.052,0.025 -0.12,0.049 -0.205,0.07c-0.085,0.019 -0.188,0.048 -0.313,0.088c-0.124,0.041 -0.264,0.076 -0.42,0.11c-0.155,0.033 -0.321,0.065 -0.497,0.101c-0.176,0.033 -0.371,0.065 -0.585,0.099c-0.215,0.034 -0.433,0.063 -0.654,0.091c-0.222,0.025 -0.458,0.047 -0.713,0.06c-0.252,0.013 -0.503,0.019 -0.751,0.019c-3.044,0 -5.704,-0.867 -7.98,-2.604c-2.276,-1.736 -3.825,-4.075 -4.645,-7.016l-1.854,0c-0.168,0 -0.315,-0.064 -0.438,-0.19c-0.124,-0.126 -0.186,-0.275 -0.186,-0.448l0,-2.256c0,-0.172 0.062,-0.322 0.186,-0.449c0.124,-0.125 0.271,-0.188 0.438,-0.188l1.289,0c-0.026,-0.76 -0.021,-1.458 0.019,-2.097l-1.309,0c-0.182,0 -0.332,-0.061 -0.448,-0.18c-0.116,-0.12 -0.176,-0.273 -0.176,-0.459l0,-2.276c0,-0.186 0.06,-0.338 0.176,-0.457c0.116,-0.12 0.267,-0.181 0.448,-0.181l1.913,0c0.871,-2.794 2.456,-5.043 4.752,-6.746c2.296,-1.704 4.9,-2.556 7.815,-2.556c1.328,0 2.589,0.153 3.786,0.46c0.143,0.04 0.273,0.141 0.391,0.299c0.077,0.146 0.098,0.306 0.059,0.479l-0.84,3.173c-0.039,0.174 -0.13,0.304 -0.273,0.391c-0.143,0.086 -0.3,0.102 -0.468,0.049l-0.079,-0.02c-0.052,-0.013 -0.126,-0.029 -0.225,-0.049l-0.342,-0.071c0,0 -0.146,-0.022 -0.438,-0.069c-0.294,-0.047 -0.463,-0.066 -0.508,-0.061c-0.046,0.008 -0.234,-0.01 -0.565,-0.05c-0.333,-0.039 -0.524,-0.046 -0.577,-0.02c-1.639,0 -3.108,0.426 -4.409,1.276c-1.301,0.854 -2.277,2.023 -2.928,3.514l9.133,0c0.208,0 0.37,0.08 0.487,0.24c0.131,0.159 0.176,0.332 0.137,0.519l-0.468,2.276c-0.065,0.346 -0.273,0.518 -0.624,0.518l-9.523,0c-0.038,0.492 -0.038,1.191 0,2.097l8.957,0c0.195,0 0.357,0.079 0.487,0.238c0.117,0.161 0.157,0.34 0.117,0.538l-0.469,2.236c-0.024,0.146 -0.097,0.27 -0.215,0.369c-0.116,0.101 -0.246,0.15 -0.389,0.15l-7.553,0c0.625,1.557 1.597,2.791 2.917,3.703c1.32,0.911 2.808,1.367 4.46,1.367c0.233,0 0.468,-0.01 0.703,-0.03c0.233,-0.02 0.451,-0.044 0.653,-0.071c0.201,-0.026 0.393,-0.055 0.575,-0.088c0.182,-0.033 0.342,-0.067 0.478,-0.101c0.137,-0.032 0.257,-0.063 0.36,-0.091l0.234,-0.06l0.098,-0.039c0.169,-0.067 0.338,-0.054 0.508,0.039c0.155,0.094 0.253,0.233 0.292,0.419l0.684,3.175c0.043,0.161 0.022,0.311 -0.055,0.45z"/>
 </g>
</svg>