<svg width="28" height="32" xmlns="http://www.w3.org/2000/svg" xmlns:xlink="http://www.w3.org/1999/xlink"><title>if_google-play_317742</title><defs><path d="M21.028 11.518l-6.69-3.862S2.148.616 1.43.203C.715-.211 0 .039 0 .902v30.362c0 .649.512.93 1.133.569.624-.359 13.205-7.625 13.205-7.625l6.69-3.862 6.433-3.714c.754-.435.683-1.032.045-1.376-.638-.344-6.478-3.738-6.478-3.738z" id="a"/><path d="M21.028 11.518l-6.69-3.862S2.148.616 1.43.203C.715-.211 0 .039 0 .902v30.362c0 .649.512.93 1.133.569.624-.359 13.205-7.625 13.205-7.625l6.69-3.862 6.433-3.714c.754-.435.683-1.032.045-1.376-.638-.344-6.478-3.738-6.478-3.738z" id="c"/><path d="M21.028 11.518l-6.69-3.862S2.148.616 1.43.203C.715-.211 0 .039 0 .902v30.362c0 .649.512.93 1.133.569.624-.359 13.205-7.625 13.205-7.625l6.69-3.862 6.433-3.714c.754-.435.683-1.032.045-1.376-.638-.344-6.478-3.738-6.478-3.738z" id="e"/></defs><g fill="none" fill-rule="evenodd"><mask id="b" fill="#fff"><use xlink:href="#a"/></mask><path fill="#2CAFA2" fill-rule="nonzero" mask="url(#b)" d="M0-.504v32.871l16.577-16.435z"/><mask id="d" fill="#fff"><use xlink:href="#c"/></mask><path fill="#77E888" fill-rule="nonzero" mask="url(#d)" d="M21.028 11.518l-6.69-3.863L0-.624v.12l16.577 16.436z"/><mask id="f" fill="#fff"><use xlink:href="#e"/></mask><path fill="#CC3A72" fill-rule="nonzero" mask="url(#f)" d="M0 32.367v.12l14.338-8.278 6.69-3.862-4.451-4.415z"/><path d="M21.028 11.518l-4.451 4.414 4.451 4.415 7.648-4.415z" fill="#EA9053" fill-rule="nonzero"/></g></svg>