<svg width="22" height="25" xmlns="http://www.w3.org/2000/svg" xmlns:xlink="http://www.w3.org/1999/xlink"><title>google play - icon</title><desc>Created using Figma</desc><g transform="translate(-4414 -2029)"><mask id="b"><use xlink:href="#a" transform="translate(4414 2029.01)" fill="#FFF"/></mask><g mask="url(#b)"><use xlink:href="#c" transform="translate(4414 2028.61)" fill="#2CAFA2"/></g></g><g transform="translate(-4414 -2029)"><mask id="d"><use xlink:href="#a" transform="translate(4414 2029.01)" fill="#FFF"/></mask><g mask="url(#d)"><use xlink:href="#e" transform="translate(4414 2028.51)" fill="#77E888"/></g></g><g transform="translate(-4414 -2029)"><mask id="f"><use xlink:href="#a" transform="translate(4414 2029.01)" fill="#FFF"/></mask><g mask="url(#f)"><use xlink:href="#g" transform="translate(4414 2041.45)" fill="#CC3A72"/></g></g><g transform="translate(-4414 -2029)"><mask id="h"><use xlink:href="#a" transform="translate(4414 2029.01)" fill="#FFF"/></mask><g mask="url(#h)"><use xlink:href="#i" transform="translate(4426.95 2038)" fill="#EA9053"/></g></g><defs><path id="a" fill-rule="evenodd" d="M16.428 8.992l-5.226-3.017L1.117.152C.56-.17 0 .024 0 .7v23.72c0 .507.4.726.885.444.488-.28 10.317-5.957 10.317-5.957l5.226-3.017 5.026-2.901c.589-.34.534-.807.035-1.075-.498-.27-5.06-2.92-5.06-2.92z"/><path id="c" d="M0 0v25.68l12.95-12.84L0 0z"/><path id="e" d="M16.428 9.486l-5.226-3.018L0 0v.094l12.95 12.84 3.478-3.448z"/><path id="g" d="M0 12.84v.094l11.202-6.468 5.226-3.017L12.951 0 0 12.84z"/><path id="i" d="M3.477 0L0 3.448l3.477 3.45 5.975-3.45L3.477 0z"/></defs></svg>