<svg width="96" height="21" xmlns="http://www.w3.org/2000/svg"><title>On white</title><g fill="none" fill-rule="evenodd"><path d="M3.674 13.091c0 1.443.007 5.615 0 6.308 0 .41-.199.608-.602.615-.8.007-1.608.007-2.409 0-.41 0-.595-.198-.595-.615V.66C.068.257.245.08.65.08c2.338 0 4.675-.036 7.013.013 3.365.072 5.865 2.568 6.014 5.926.078 1.79-.262 3.451-1.424 4.865-1.176 1.435-2.741 2.128-4.576 2.2-1.19.049-3.832.006-4.002.006zm.014-2.977c1.112 0 2.182-.007 3.258 0 .914.008 1.658-.346 2.225-1.046.878-1.082 1.105-2.326.75-3.656C9.519 3.9 8.372 3.05 6.812 3.05H3.696c-.007 2.369-.007 4.696-.007 7.064zm23.288 9.907c-.524.042-.814-.212-.998-.665-.397-.954-.808-1.909-1.19-2.87-.1-.255-.234-.319-.496-.319-2.53.007-5.05.015-7.58 0-.29 0-.41.106-.51.354-.375.94-.772 1.867-1.161 2.8-.234.566-.433.693-1.049.693h-2.054c-.616 0-.836-.325-.574-.89.73-1.606 6.397-13.945 8.486-18.513.135-.29.29-.488.645-.495.368-.007.58.12.737.467 2.798 6.173 5.598 12.343 8.401 18.512.276.608.064.926-.602.926-.354-.007-1.729-.028-2.055 0zm-9.243-6.859h5.54c-.936-2.05-1.85-4.058-2.799-6.159-.943 2.107-1.835 4.108-2.742 6.159zm18.02-6.265c.205-.297 3.075-4.51 4.313-6.357.205-.31.446-.438.815-.431.8.021 1.608.007 2.408.007.262 0 .532 0 .673.283.142.275.014.495-.141.721a3825.61 3825.61 0 0 1-6.05 8.924 1.41 1.41 0 0 0-.255.848c.007 2.793.01 5.584.007 8.372 0 .587-.163.75-.758.75h-2.16c-.525 0-.695-.177-.695-.7 0-2.85-.002-5.7-.007-8.55a1.096 1.096 0 0 0-.177-.586C31.754 7.199 27.606 1 27.556.872c-.155-.36.043-.735.433-.742.97-.021 1.933-.028 2.904.014.177.007.39.212.503.375 1.374 2 4.25 6.23 4.356 6.378zm60.209 9.928a3.21 3.21 0 0 1-6.419-.028c.022-1.768 1.46-3.197 3.21-3.19a3.197 3.197 0 0 1 3.209 3.218zm-3.252 2.793c1.551.028 2.812-1.195 2.862-2.765.042-1.513-1.218-2.821-2.742-2.85-1.572-.028-2.861 1.195-2.89 2.73a2.807 2.807 0 0 0 2.77 2.885zm.567-2.539c.29.417.567.806.843 1.21-.319.127-.496.028-.624-.22-.084-.17-.212-.31-.304-.473-.248-.425-.602-.566-1.112-.439v1.16a5.656 5.656 0 0 0-.354.028V15.61c.51 0 1.006-.022 1.494.007.41.021.637.269.68.636.043.361-.134.636-.517.785a.403.403 0 0 1-.106.042zm-1.19-.304c.368 0 .708.015 1.048-.006.248-.015.39-.177.397-.418.007-.262-.163-.417-.418-.438-.333-.022-.673-.007-1.027-.007v.87z" fill="#000" fill-rule="nonzero"/><path d="M84.203 12.053c.099.19.184.361.269.524 1.133 2.135 2.266 4.271 3.399 6.41.07.11.125.23.162.355.086.326-.106.61-.439.617-.99.015-1.982.007-2.974.007-.297 0-.389-.226-.488-.44-1.112-2.29-2.23-4.58-3.328-6.878-.135-.284-.29-.404-.616-.397-.757.022-1.508.022-2.266 0-.311-.007-.403.1-.403.411.007 2.178.007 4.348.007 6.524 0 .68-.1.78-.772.78H74.7c-.545 0-.693-.142-.693-.687V.735c0-.49.163-.66.651-.66 2.585 0 5.17-.014 7.753 0 2.89.015 5.247 1.908 5.757 4.695.545 2.964-.68 5.701-3.555 7.084-.134.057-.262.12-.41.199zm-6.62-2.688c.155 0 3.073-.007 4.417 0a2.34 2.34 0 0 0 1.445-.49c1.062-.794 1.558-2.311 1.19-3.651-.39-1.426-1.423-2.22-2.89-2.22h-4.162v6.361zM49.278 3.004v5.58h6.613c.56 0 .723.164.723.71v1.56c0 .49-.17.66-.659.66h-6.67v5.58h7.938c.608 0 .743.135.743.745v1.489c0 .532-.163.695-.693.695-3.35 0-10.671.008-10.976 0-.35-.006-.53-.14-.58-.434-.008-.045-.014-12.586-.014-18.684 0-.71.12-.823.814-.823h10.649c.673 0 .793.12.793.809v1.418c0 .553-.149.702-.715.702-2.5-.007-7.782-.007-7.966-.007zm10.648 7.027V.777c0-.581.127-.71.701-.71H71.46c.553 0 .694.143.694.682v1.596c0 .503-.141.652-.651.652h-7.541c-.517 0-.517 0-.517.51 0 1.56.007 3.12-.007 4.681 0 .312.092.397.404.397 2.04-.014 4.085-.007 6.124-.007.744 0 .843.099.843.822v1.49c0 .446-.163.616-.623.616-1.076.008-5.318.008-6.373 0-.261 0-.375.05-.375.348.014 1.631.014 3.262 0 4.893 0 .29.106.347.375.347 2.528-.006 5.049-.006 7.577-.006.665 0 .764.099.764.78v1.489c0 .503-.149.66-.644.66H60.676c-.63 0-.743-.114-.743-.738-.007-3.078-.01-6.16-.007-9.248z" fill="#39C"/></g></svg>